<svg width="192" height="50" fill="none" xmlns="http://www.w3.org/2000/svg">
  <path fill-rule="evenodd" clip-rule="evenodd" d="M0 50h50V0H0v50z" fill="#fff"/>
  <path fill-rule="evenodd" clip-rule="evenodd" d="M16.147 9.09c1.33 0 2.447.616 3.17 1.307l-1.33 1.399c-.543-.461-1.052-.753-1.807-.753-1.495 0-2.66 1.214-2.66 3.227 0 2.06 1.034 3.259 2.594 3.259.887 0 1.511-.354 2.036-.892l1.33 1.368c-.886.969-2.069 1.476-3.399 1.476-2.775 0-5.042-1.768-5.042-5.134 0-3.32 2.349-5.256 5.108-5.256zm20.125 21.43l-2.037-3.98h-1.303v3.98h-2.413V19.48h3.83c2.25 0 4.107.813 4.107 3.437 0 1.626-.766 2.659-1.89 3.184l2.395 4.419h-2.689zm-3.34-5.96h1.222c1.254 0 1.939-.559 1.939-1.643 0-1.083-.685-1.456-1.94-1.456h-1.221v3.099zM11.04 30.52h3.033c3.297 0 5.408 1.577 5.408 5.146 0 3.57-2.11 5.243-5.26 5.243H11.04V30.52zm2.9 8.493c1.815 0 3.051-.86 3.051-3.346s-1.236-3.251-3.05-3.251h-.462v6.597h.462zm-2.786-12.859h8.461v-2.308h-8.461v2.308zm25.563 10.859c.015.09.025.181.025.275 0 1.02-.896 1.848-2.002 1.848-1.105 0-2.001-.828-2.001-1.848 0-.094.01-.185.025-.275h-2.245c0 2.152 1.89 3.896 4.221 3.896 2.331 0 4.221-1.744 4.221-3.896h-2.244zM30.52 13.42c3.869 0 3.728-4.33 8.441-4.33v2.165c-3.799 0-3.588 4.33-8.441 4.33V13.42z" fill="#000"/>
  <path d="M71.4 20.099c-.77 0-1.445-.165-2.024-.495a3.326 3.326 0 01-1.32-1.397c-.308-.609-.462-1.32-.462-2.134 0-.807.154-1.51.462-2.112a3.243 3.243 0 011.32-1.397c.58-.33 1.254-.495 2.024-.495.528 0 1.023.084 1.485.253.47.161.858.389 1.166.682l-.462 1.034a3.593 3.593 0 00-1.056-.616 3.08 3.08 0 00-1.111-.198c-.755 0-1.342.246-1.76.737-.41.491-.616 1.195-.616 2.112 0 .924.205 1.635.616 2.134.41.491.997.737 1.76.737.396 0 .766-.062 1.111-.187a3.813 3.813 0 001.056-.627l.462 1.034a3.266 3.266 0 01-1.166.693 4.474 4.474 0 01-1.485.242zm8.403 0c-.755 0-1.415-.161-1.98-.484a3.368 3.368 0 01-1.298-1.397c-.3-.609-.451-1.324-.451-2.145 0-.814.15-1.522.45-2.123a3.22 3.22 0 011.288-1.397c.564-.323 1.228-.484 1.99-.484.763 0 1.423.161 1.98.484a3.13 3.13 0 011.288 1.397c.3.601.45 1.309.45 2.123 0 .821-.15 1.536-.45 2.145-.3.601-.73 1.067-1.287 1.397-.558.323-1.218.484-1.98.484zm0-1.133c.726 0 1.29-.25 1.694-.748.403-.499.605-1.214.605-2.145 0-.924-.202-1.632-.605-2.123-.403-.499-.968-.748-1.694-.748s-1.29.246-1.694.737c-.403.491-.605 1.203-.605 2.134 0 .931.202 1.646.605 2.145.403.499.968.748 1.694.748zm11.54-6.798h1.331V20h-1.056l-4.224-5.489V20h-1.32v-7.832h1.056l4.213 5.478v-5.478zm6.786 7.931c-.601 0-1.166-.08-1.694-.242a3.885 3.885 0 01-1.33-.693l.483-1.034c.381.286.777.499 1.188.638a4.51 4.51 0 001.364.198c.543 0 .96-.095 1.254-.286.3-.19.451-.458.451-.803 0-.293-.14-.517-.418-.671-.271-.161-.722-.312-1.353-.451-.983-.213-1.698-.488-2.145-.825-.447-.337-.67-.829-.67-1.474 0-.462.124-.873.373-1.232.25-.36.601-.642 1.056-.847.462-.205.994-.308 1.595-.308.55 0 1.07.084 1.562.253.499.161.906.389 1.221.682l-.473 1.034c-.697-.557-1.467-.836-2.31-.836-.506 0-.906.106-1.199.319a.979.979 0 00-.44.847.78.78 0 00.385.704c.264.161.711.312 1.342.451.653.154 1.184.323 1.595.506.411.176.726.407.946.693.22.279.33.63.33 1.056 0 .47-.125.88-.374 1.232-.249.345-.609.612-1.078.803-.47.19-1.023.286-1.66.286zm5.528-.099v-7.832h5.236v1.122h-3.85v2.167h3.619v1.122h-3.619v2.299h3.85V20h-5.236zm14.088 0h-1.496l-1.001-2.607c-.088-.242-.224-.41-.407-.506-.183-.095-.422-.143-.715-.143h-1.419V20h-1.408v-7.832h3.355c.887 0 1.562.194 2.024.583.462.389.693.946.693 1.672 0 .52-.139.964-.418 1.331-.271.36-.66.616-1.166.77.462.095.796.418 1.001.968l.957 2.508zm-3.289-4.356c.535 0 .931-.099 1.188-.297.257-.198.385-.499.385-.902 0-.396-.128-.69-.385-.88-.249-.198-.645-.297-1.188-.297h-1.771v2.376h1.771zm11.301-3.476h1.441L123.711 20h-1.155l-3.487-7.832h1.474l2.607 6.05 2.607-6.05zM134.275 20l-.781-1.837h-3.828L128.874 20h-1.43l3.542-7.832h1.155L135.694 20h-1.419zm-4.136-2.937h2.882l-1.441-3.355-1.441 3.355zM138.511 20v-6.666h-2.552v-1.166h6.545v1.166h-2.563V20h-1.43zm9.088.099c-.755 0-1.415-.161-1.98-.484a3.37 3.37 0 01-1.298-1.397c-.301-.609-.451-1.324-.451-2.145 0-.814.15-1.522.451-2.123a3.219 3.219 0 011.287-1.397c.565-.323 1.228-.484 1.991-.484.763 0 1.423.161 1.98.484.565.323.994.788 1.287 1.397.301.601.451 1.309.451 2.123 0 .821-.15 1.536-.451 2.145a3.302 3.302 0 01-1.287 1.397c-.557.323-1.217.484-1.98.484zm0-1.133c.726 0 1.291-.25 1.694-.748.403-.499.605-1.214.605-2.145 0-.924-.202-1.632-.605-2.123-.403-.499-.968-.748-1.694-.748s-1.291.246-1.694.737-.605 1.203-.605 2.134c0 .931.202 1.646.605 2.145.403.499.968.748 1.694.748zM153.87 20v-7.832h1.419V20h-1.419zm10.662 0h-1.496l-1.001-2.607c-.088-.242-.224-.41-.407-.506-.184-.095-.422-.143-.715-.143h-1.419V20h-1.408v-7.832h3.355c.887 0 1.562.194 2.024.583.462.389.693.946.693 1.672 0 .52-.14.964-.418 1.331-.272.36-.66.616-1.166.77.462.095.795.418 1.001.968l.957 2.508zm-3.289-4.356c.535 0 .931-.099 1.188-.297.256-.198.385-.499.385-.902 0-.396-.129-.69-.385-.88-.25-.198-.646-.297-1.188-.297h-1.771v2.376h1.771zM166.909 20v-7.832h5.236v1.122h-3.85v2.167h3.619v1.122h-3.619v2.299h3.85V20h-5.236zm-93.65 10.168h1.408V38h-1.408v-3.399h-4.015V38h-1.397v-7.832h1.397v3.278h4.015v-3.278zM77.466 38v-7.832h5.236v1.122h-3.85v2.167h3.619v1.122h-3.62v2.299h3.85V38h-5.235zm12.91-7.832h1.331V38h-1.055l-4.225-5.489V38h-1.32v-7.832h1.056l4.213 5.478v-5.478zM100.957 38h-1.496l-1-2.607c-.089-.242-.224-.41-.408-.506-.183-.095-.421-.143-.715-.143H95.92V38h-1.408v-7.832h3.355c.888 0 1.562.194 2.024.583.462.389.693.946.693 1.672 0 .52-.139.964-.418 1.331-.271.36-.66.616-1.166.77.462.095.796.418 1.001.968l.957 2.508zm-3.289-4.356c.536 0 .932-.099 1.188-.297.257-.198.385-.499.385-.902 0-.396-.128-.69-.385-.88-.25-.198-.645-.297-1.188-.297h-1.77v2.376h1.77zM103.335 38v-7.832h1.419V38h-1.419zm8.334-7.832h2.882c1.283 0 2.277.341 2.981 1.023.711.682 1.067 1.643 1.067 2.882 0 1.247-.356 2.215-1.067 2.904-.704.682-1.698 1.023-2.981 1.023h-2.882v-7.832zm2.794 6.677c1.804 0 2.706-.924 2.706-2.772 0-1.833-.902-2.75-2.706-2.75h-1.375v5.522h1.375zm9.919 1.254c-1.078 0-1.896-.275-2.453-.825-.55-.557-.825-1.371-.825-2.442v-4.664h1.397v4.741c0 .675.157 1.188.473 1.54.315.345.784.517 1.408.517.608 0 1.07-.176 1.386-.528.322-.352.484-.862.484-1.529v-4.741h1.397v4.664c0 1.063-.279 1.874-.836 2.431-.558.557-1.368.836-2.431.836zm7.845-.099v-6.666h-2.552v-1.166h6.545v1.166h-2.563V38h-1.43zm6.074 0v-7.832h1.419V38h-1.419zm4.215 0v-7.832h1.419v6.666h3.663V38h-5.082zm7.255 0v-7.832h1.419v6.666h3.663V38h-5.082zm7.255 0v-7.832h5.236v1.122h-3.85v2.167h3.619v1.122h-3.619v2.299h3.85V38h-5.236zm10.876.099c-1.078 0-1.895-.275-2.453-.825-.55-.557-.825-1.371-.825-2.442v-4.664h1.397v4.741c0 .675.158 1.188.473 1.54.316.345.785.517 1.408.517.609 0 1.071-.176 1.386-.528.323-.352.484-.862.484-1.529v-4.741h1.397v4.664c0 1.063-.278 1.874-.836 2.431-.557.557-1.367.836-2.431.836zm9.575-4.081L180.458 38h-1.661l-2.123-2.926L174.551 38h-1.661l2.981-3.993-2.882-3.839h1.661l2.024 2.805 2.046-2.805h1.65l-2.893 3.85z" fill="#FAFAFA"/>
</svg>
