<svg class="style-svg" width="65" height="65" viewBox="0 0 65 65" xmlns="http://www.w3.org/2000/svg">
  <title>Conservatoire Henri Dutilleux</title>
  <path d="M0 65H65V0H0V65Z" fill="#fff"/>
  <path d="M21 11.818c1.73 0 3.18.8 4.12 1.698l-1.73 1.818c-.705-.6-1.367-.98-2.35-.98-1.943 0-3.458 1.578-3.458 4.196 0 2.677 1.345 4.236 3.373 4.236 1.153 0 1.964-.46 2.648-1.16l1.73 1.778c-1.153 1.26-2.7 1.918-4.42 1.918-3.608 0-6.555-2.298-6.555-6.673 0-4.316 3.053-6.833 6.64-6.833zm26.164 27.857l-2.648-5.172H42.8v5.172h-3.136v-14.35h4.98c2.923 0 5.34 1.056 5.34 4.468 0 2.113-.996 3.456-2.457 4.138l3.114 5.745h-3.495zm-4.343-7.748h1.6c1.63 0 2.52-.726 2.52-2.135s-.9-1.893-2.52-1.893h-1.6v4.028zm-28.46 7.748h3.944c4.287 0 7.03 2.05 7.03 6.7s-2.744 6.815-6.837 6.815H14.35V39.675zm3.772 11.04c2.358 0 3.965-1.118 3.965-4.35s-1.607-4.226-3.965-4.226h-.6v8.576h.6zM14.5 34h11v-3h-11v3zm33.232 14.117a2.12 2.12 0 0 1 .032.358c0 1.327-1.165 2.402-2.602 2.402S42.56 49.8 42.56 48.475a2.2 2.2 0 0 1 .032-.358h-2.917c0 2.797 2.456 5.065 5.487 5.065s5.487-2.268 5.487-5.065h-2.917zm-8.057-30.67c5.03 0 4.847-5.628 10.974-5.628v2.814c-4.938 0-4.664 5.628-10.974 5.628v-2.814z" fill="#000"/>
</svg>