<svg viewBox="0 0 200 100" fill="none" xmlns="http://www.w3.org/2000/svg">
  <path d="M90.973 37.273h-8.486v1.78c.006.413.106.819.293 1.187.108.366.344.681.667.887.29.274.623.5.986.666a6.56 6.56 0 001.38.194v2.173a6.959 6.959 0 01-1.58.493c-.584.116-1.178.183-1.773.2a7.332 7.332 0 01-2.467-.493 8.58 8.58 0 01-2-1.287 7.295 7.295 0 01-1.48-2 6.808 6.808 0 01-.493-2.466c-.04-.853.13-1.702.493-2.474a5.488 5.488 0 011.38-2 7.14 7.14 0 014.44-1.873 5.627 5.627 0 011.774.393 5.175 5.175 0 011.68.787 3.22 3.22 0 001.873.593 3.332 3.332 0 002.467-1.086l1.286-1.28c-.666-.667-1.386-1.287-2.073-1.88-.667-.494-1.48-.987-2.173-1.38a11.397 11.397 0 00-2.367-.887 11.061 11.061 0 00-2.467-.3c-1.03.03-2.055.161-3.06.393-.937.277-1.833.677-2.666 1.187a10.664 10.664 0 00-2.314 1.867 10.076 10.076 0 00-1.773 2.266 8.081 8.081 0 00-1.087 2.667c-.28.997-.413 2.03-.393 3.067-.014 1 .119 1.997.393 2.96.2.946.568 1.85 1.087 2.666.478.87 1.075 1.669 1.773 2.374a10.26 10.26 0 002.374 1.666c.831.514 1.728.913 2.666 1.187.995.284 2.026.417 3.06.393.757.016 1.514-.015 2.267-.093a15.06 15.06 0 002.273-.5 7.727 7.727 0 002.074-.887 9.403 9.403 0 002-1.48l-.034-9.68zM138.04 49.72l-9.673-22.22H124l-9.667 22.22h3.254c.3 0 .666-.1.986-.1a4.07 4.07 0 00.887-.493c.3-.2.493-.394.793-.594a2.23 2.23 0 00.494-.793l1.086-2.467h8.834l1.086 2.467c.104.297.273.569.494.793.217.27.484.497.786.667.256.148.521.28.794.393.322.079.654.112.986.1l3.227.027zm-14.207-8.987l2-4.666c.094-.194.094-.394.194-.587a1.09 1.09 0 00.1-.493 1.09 1.09 0 00.1-.494c.044.162.077.327.1.494.041.162.072.327.093.493.1.093.1.293.2.587l2 4.666h-4.787zm37.1-13.233H155.9v14a.29.29 0 00-.1-.193 4.595 4.595 0 01-.093-.494c-.1-.1-.1-.3-.2-.5l-.294-.586-7.8-11.334a1.446 1.446 0 00-.886-.593c-.397-.2-.836-.3-1.28-.293h-5.034V49.72h5.12V34.387l10.554 15.333h5.033l.013-22.22zM178.5 49.333a10.59 10.59 0 002.667-1.08 13.062 13.062 0 002.273-1.78 9.9 9.9 0 001.773-2.273c.464-.809.829-1.67 1.087-2.567.269-.965.393-1.965.367-2.966a9.668 9.668 0 00-.394-2.967 10.756 10.756 0 00-1.086-2.667 12.681 12.681 0 00-1.774-2.266 19.074 19.074 0 00-2.273-1.68 10.746 10.746 0 00-2.667-1.187c-.971-.23-1.963-.36-2.96-.393h-9.153V49.72h9.18c1 .019 1.998-.111 2.96-.387zm-7.107-16.666h4.147a4.502 4.502 0 012.267.493c.768.246 1.458.69 2 1.287a6.526 6.526 0 011.38 1.873c.316.752.484 1.558.493 2.373a5.767 5.767 0 01-.493 2.267 7.053 7.053 0 01-1.38 2c-.568.564-1.25 1-2 1.28a5.77 5.77 0 01-2.267.493h-4.147V32.667zm-87.526 30.38h-.394c.303-.026.584-.167.787-.394.3-.293.493-.593.793-.886.194-.394.294-.794.493-1.287.078-.39.11-.789.094-1.187a4.48 4.48 0 00-.394-2.066 4.086 4.086 0 00-1.086-1.68 6.385 6.385 0 00-1.673-1.187 5.086 5.086 0 00-2.074-.393h-7.5v18.86h8.194a5.334 5.334 0 002.166-.394 6.579 6.579 0 001.68-1.186c.481-.493.88-1.06 1.18-1.68a5.254 5.254 0 00.4-2.174 4.173 4.173 0 00-.493-2.173 4.666 4.666 0 00-2.174-2.173zm-8.287-6.514h4.833c.35.008.69.109.987.294.314.128.612.294.886.493l.594.893c.124.347.191.712.2 1.08a2.92 2.92 0 01-.2.994 3.506 3.506 0 01-.593.886c-.274.23-.57.429-.887.594-.318.114-.65.181-.987.2H75.58v-5.434zm8.186 11.947a7.713 7.713 0 01-.593.987c-.293.2-.587.4-.886.593-.384.115-.78.182-1.18.2H75.58v-5.633h5.526a2.46 2.46 0 011.18.2c.338.126.642.33.887.593l.593.887c.115.352.182.717.2 1.086-.008.37-.076.738-.2 1.087zm6.814 4.347h11.74V70.26h-9.08v-5.633h7.3V62.06h-7.3v-5.527h9.08v-2.566H90.58v18.86zm18.253-18.86h-2.566v18.86h10.753V70.26h-8.187V53.967zm11.347 18.86h2.567v-7.8h7.693V62.36h-7.693v-5.827h9.08v-2.566H120.18v18.86zm32.167-14.32a9.29 9.29 0 00-1.48-2 14.55 14.55 0 00-2-1.48 15.515 15.515 0 00-2.267-.994 11.628 11.628 0 00-2.567-.293 11.001 11.001 0 00-2.566.293 13.15 13.15 0 00-2.367.994c-.708.435-1.377.93-2 1.48a9.257 9.257 0 00-1.48 2 8.445 8.445 0 00-.953 2.373 10.52 10.52 0 00-.3 2.567 9.767 9.767 0 00.666 3.753 9.45 9.45 0 002.074 3.06 10.475 10.475 0 003.06 2.073 9.908 9.908 0 003.846.787 11.414 11.414 0 002.567-.393 9.419 9.419 0 002.267-.987 9.262 9.262 0 002-1.48 9.454 9.454 0 001.48-2 9.084 9.084 0 001.006-2.26 11.2 11.2 0 00.3-2.567 10.567 10.567 0 00-.3-2.566 8.262 8.262 0 00-.986-2.36zm-1.874 7.606a5.991 5.991 0 01-1.48 2.267 5.089 5.089 0 01-2.266 1.487 6.23 6.23 0 01-2.667.586 6.298 6.298 0 01-2.76-.586 5.074 5.074 0 01-2.273-1.487 6.078 6.078 0 01-1.48-2.267 5.904 5.904 0 01-.594-2.666 6.338 6.338 0 01.594-2.767 7.037 7.037 0 011.48-2.273 7.437 7.437 0 012.306-1.48 6.302 6.302 0 012.76-.594 6.225 6.225 0 012.667.594 7.506 7.506 0 012.267 1.48 6.938 6.938 0 011.446 2.26c.404.865.607 1.811.594 2.766a5.92 5.92 0 01-.594 2.68zm17.267-2.173a3.425 3.425 0 001.187-1.187c.358-.436.625-.939.786-1.48a5.53 5.53 0 00.3-1.78 5.373 5.373 0 00-.393-2.173 5.706 5.706 0 00-1.187-1.773 5.59 5.59 0 00-1.766-1.187 5.278 5.278 0 00-2.174-.393h-6.813v18.86h2.667v-7.8h2.766l5.034 6.613c.187.387.499.7.886.887.431.204.903.307 1.38.3h1.774l-6-8.1a4.72 4.72 0 001.553-.787zm-3.253-1.58h-4.147v-5.827h4.147c.412.006.818.107 1.186.294.336.13.639.332.887.593.261.246.462.55.587.887.19.367.293.773.3 1.186a1.96 1.96 0 01-.3 1.087 2 2 0 01-.587.987c-.273.23-.57.429-.887.593a2.5 2.5 0 01-1.186.2zm7.793-5.827h5.92v16.294h2.567V56.533h5.92v-2.566H172.28v2.566zm-65.027-8c.175.265.402.492.667.667.293.093.587.293.887.393.322.083.654.117.986.1h3.254l-4.047-8a20.72 20.72 0 001.58-1.386c.406-.522.778-1.07 1.113-1.64.298-.52.499-1.089.594-1.68.113-.587.178-1.183.193-1.78a10.777 10.777 0 00-.193-1.774 13.128 13.128 0 00-.667-1.78 8.517 8.517 0 00-1.087-1.58 6.656 6.656 0 00-1.573-1.286 5.58 5.58 0 00-1.88-.887 8.28 8.28 0 00-2.267-.393H96V49.72h5.127V43h2.96l2.666 4.74c.106.298.277.57.5.793zm-6.12-15.866h3.847c.306.018.608.086.893.2.282.17.545.37.787.593.202.273.368.571.493.887.188.258.292.567.3.886.008.353-.097.699-.3.987a3.97 3.97 0 01-.493.893c-.245.22-.508.418-.787.594a3.061 3.061 0 01-.893.193h-3.847v-5.233zm-71.54 48.24h15.114a17.708 17.708 0 006.913-1.62 18.621 18.621 0 005.62-3.814 16.3 16.3 0 003.813-5.62c.398-.853.702-1.747.907-2.666v-.127c.06-.067.06-.133.06-.26.255-1.06.387-2.144.393-3.233.055-.218.076-.443.06-.667v-.193a17.999 17.999 0 00-1.74-7.207 11.833 11.833 0 00-3.88-5.173 9.332 9.332 0 00-4.393-1.747h-.06a4 4 0 002.667-1.227 12.08 12.08 0 002.266-2.98 16.16 16.16 0 001.614-3.94c.377-1.325.575-2.695.586-4.073a17.16 17.16 0 00-1.333-6.787 17.073 17.073 0 00-16.013-10.48H29.593a1.654 1.654 0 00-1.68 1.62v5.174a1.714 1.714 0 001.68 1.68h12.594a8.734 8.734 0 013.426.666 9.653 9.653 0 012.84 1.934 8.926 8.926 0 012.587 6.213 8.781 8.781 0 01-.713 3.427 8.961 8.961 0 01-1.874 2.78 8.366 8.366 0 01-2.84 1.873 7.733 7.733 0 01-3.426.713h-9.234a1.668 1.668 0 00-1.68 1.68V52a1.668 1.668 0 001.68 1.68h11.754a9.733 9.733 0 013.62.713 9.687 9.687 0 014.906 4.94 9.734 9.734 0 01.714 3.62 9.414 9.414 0 01-.714 3.554 9.519 9.519 0 01-2 2.973 10.191 10.191 0 01-2.906 2 9.733 9.733 0 01-3.62.713H29.593a1.707 1.707 0 00-1.68 1.68v5.334a1.707 1.707 0 001.68 1.7zm-6.26-31.574a4.961 4.961 0 003.1-4.267V21.16a2.093 2.093 0 00-2.133-2.067H21a2.613 2.613 0 00-2.667 2.587v22.5a5.874 5.874 0 01-.393 1.68c-.773 2.073-2.713 2.913-4.393 3.493-.194 0-.254.193-.254.327a.353.353 0 00.254.386c1.62.514 3.426 1.294 4.266 3.294a5.6 5.6 0 01.52 2.913v22A2.667 2.667 0 0021 80.94h3.293a2.166 2.166 0 002.134-2.2V54.266A5.14 5.14 0 0023.333 50h-.066a6.129 6.129 0 00-1.034-.32 6.687 6.687 0 001.034-.26.068.068 0 01.01-.061.067.067 0 01.056-.026z" fill="#000"/>
</svg>
