<svg viewBox="0 0 1260 700" fill="none" xmlns="http://www.w3.org/2000/svg">
  <g class="curveLines">
    <path d="M714.82,146.75c-45.82,0-83-40.88-83-91.32A97.76,97.76,0,0,1,644.1,7.66"/>
    <path d="M983.41,153.39a32.38,32.38,0,1,0,0-64.75h-37"/>
    <path d="M826.91,15.58H976.29c56.85,0,102.94,46.28,102.94,103.36S1033.14,222.3,976.29,222.3H931.34"/>
    <path d="M928.58,334H1016c50.33,0,92.48,39.34,103.49,92.16"/>
    <path d="M847.66,174.15a26.57,26.57,0,1,0-26.56-26.57A26.56,26.56,0,0,0,847.66,174.15Z"/>
    <path d="M847.66,222.3c42.17,0,76.36-33.64,76.36-75.13S889.83,72,847.66,72s-76.36,33.64-76.36,75.14"/>
    <path d="M165.4,185.77a74.7,74.7,0,1,1-149.4,0"/>
    <path d="M798.69,223.13H725.58A83.8,83.8,0,0,0,641.82,307"/>
    <path d="M871.31,384.19a32.38,32.38,0,1,0,32.79,32.38V384.19"/>
    <path d="M1071.76,537.57c0,46.43,38.08,84.06,85.07,84.06s85.08-37.63,85.08-84.06V447.29"/>
    <path d="M1027.45,576.8h-4.22a43.59,43.59,0,1,1,0-87.17H1156a43.59,43.59,0,1,1,0,87.17h-1.3"/>
    <path d="M946.43,384.19H1000A64.93,64.93,0,0,1,1065.11,449"/>
    <path d="M418.62,338.11a34.07,34.07,0,1,1-34.07-34.45H494.08"/>
    <path d="M505.7,226.45H469.75a47.19,47.19,0,0,0-47.05,47.32"/>
    <path d="M537.65,190.75V303.66"/>
    <path d="M743.91,375.18v10.95a28.12,28.12,0,0,1-56.24,0v-9.07a27.91,27.91,0,0,0-55.81,0v11.16"/>
    <path d="M820.68,685.55a34,34,0,1,0-34.44-34A34.25,34.25,0,0,0,820.68,685.55Z"/>
    <path d="M536.8,96.94q0,12.45.05,24.91"/>
    <path d="M536.8,49.62q0,12.45.05,24.91"/>
    <path d="M809.87,493q0,12.45,0,24.9"/>
    <path d="M868.8,493q0,12.45,0,24.9"/>
    <path d="M927.73,493q0,12.45,0,24.9"/>
  </g>
</svg>

