<svg width="204" height="336" fill="none" xmlns="http://www.w3.org/2000/svg">
  <g opacity=".15" fill="#1D096B">
    <circle cx="3" cy="3" r="3"/>
    <circle cx="25" cy="3" r="3"/>
    <circle cx="47" cy="3" r="3"/>
    <circle cx="69" cy="3" r="3"/>
    <circle cx="91" cy="3" r="3"/>
    <circle cx="113" cy="3" r="3"/>
    <circle cx="135" cy="3" r="3"/>
    <circle cx="157" cy="3" r="3"/>
    <circle cx="179" cy="3" r="3"/>
    <circle cx="201" cy="3" r="3"/>
    <circle cx="3" cy="25" r="3"/>
    <circle cx="25" cy="25" r="3"/>
    <circle cx="47" cy="25" r="3"/>
    <circle cx="69" cy="25" r="3"/>
    <circle cx="91" cy="25" r="3"/>
    <circle cx="113" cy="25" r="3"/>
    <circle cx="135" cy="25" r="3"/>
    <circle cx="157" cy="25" r="3"/>
    <circle cx="179" cy="25" r="3"/>
    <circle cx="201" cy="25" r="3"/>
    <circle cx="3" cy="47" r="3"/>
    <circle cx="25" cy="47" r="3"/>
    <circle cx="47" cy="47" r="3"/>
    <circle cx="69" cy="47" r="3"/>
    <circle cx="91" cy="47" r="3"/>
    <circle cx="113" cy="47" r="3"/>
    <circle cx="135" cy="47" r="3"/>
    <circle cx="157" cy="47" r="3"/>
    <circle cx="179" cy="47" r="3"/>
    <circle cx="201" cy="47" r="3"/>
    <circle cx="3" cy="69" r="3"/>
    <circle cx="25" cy="69" r="3"/>
    <circle cx="47" cy="69" r="3"/>
    <circle cx="69" cy="69" r="3"/>
    <circle cx="91" cy="69" r="3"/>
    <circle cx="113" cy="69" r="3"/>
    <circle cx="135" cy="69" r="3"/>
    <circle cx="157" cy="69" r="3"/>
    <circle cx="179" cy="69" r="3"/>
    <circle cx="201" cy="69" r="3"/>
    <circle cx="3" cy="91" r="3"/>
    <circle cx="25" cy="91" r="3"/>
    <circle cx="47" cy="91" r="3"/>
    <circle cx="69" cy="91" r="3"/>
    <circle cx="91" cy="91" r="3"/>
    <circle cx="113" cy="91" r="3"/>
    <circle cx="135" cy="91" r="3"/>
    <circle cx="157" cy="91" r="3"/>
    <circle cx="179" cy="91" r="3"/>
    <circle cx="201" cy="91" r="3"/>
    <circle cx="3" cy="113" r="3"/>
    <circle cx="25" cy="113" r="3"/>
    <circle cx="47" cy="113" r="3"/>
    <circle cx="69" cy="113" r="3"/>
    <circle cx="91" cy="113" r="3"/>
    <circle cx="113" cy="113" r="3"/>
    <circle cx="135" cy="113" r="3"/>
    <circle cx="157" cy="113" r="3"/>
    <circle cx="179" cy="113" r="3"/>
    <circle cx="201" cy="113" r="3"/>
    <circle cx="3" cy="135" r="3"/>
    <circle cx="25" cy="135" r="3"/>
    <circle cx="47" cy="135" r="3"/>
    <circle cx="69" cy="135" r="3"/>
    <circle cx="91" cy="135" r="3"/>
    <circle cx="113" cy="135" r="3"/>
    <circle cx="135" cy="135" r="3"/>
    <circle cx="157" cy="135" r="3"/>
    <circle cx="179" cy="135" r="3"/>
    <circle cx="201" cy="135" r="3"/>
    <circle cx="3" cy="157" r="3"/>
    <circle cx="25" cy="157" r="3"/>
    <circle cx="47" cy="157" r="3"/>
    <circle cx="69" cy="157" r="3"/>
    <circle cx="91" cy="157" r="3"/>
    <circle cx="113" cy="157" r="3"/>
    <circle cx="135" cy="157" r="3"/>
    <circle cx="157" cy="157" r="3"/>
    <circle cx="179" cy="157" r="3"/>
    <circle cx="201" cy="157" r="3"/>
    <circle cx="3" cy="179" r="3"/>
    <circle cx="25" cy="179" r="3"/>
    <circle cx="47" cy="179" r="3"/>
    <circle cx="69" cy="179" r="3"/>
    <circle cx="91" cy="179" r="3"/>
    <circle cx="113" cy="179" r="3"/>
    <circle cx="135" cy="179" r="3"/>
    <circle cx="157" cy="179" r="3"/>
    <circle cx="179" cy="179" r="3"/>
    <circle cx="201" cy="179" r="3"/>
    <circle cx="3" cy="201" r="3"/>
    <circle cx="25" cy="201" r="3"/>
    <circle cx="47" cy="201" r="3"/>
    <circle cx="69" cy="201" r="3"/>
    <circle cx="91" cy="201" r="3"/>
    <circle cx="113" cy="201" r="3"/>
    <circle cx="135" cy="201" r="3"/>
    <circle cx="157" cy="201" r="3"/>
    <circle cx="179" cy="201" r="3"/>
    <circle cx="201" cy="201" r="3"/>
    <circle cx="3" cy="223" r="3"/>
    <circle cx="25" cy="223" r="3"/>
    <circle cx="47" cy="223" r="3"/>
    <circle cx="69" cy="223" r="3"/>
    <circle cx="91" cy="223" r="3"/>
    <circle cx="113" cy="223" r="3"/>
    <circle cx="135" cy="223" r="3"/>
    <circle cx="157" cy="223" r="3"/>
    <circle cx="179" cy="223" r="3"/>
    <circle cx="201" cy="223" r="3"/>
    <circle cx="3" cy="245" r="3"/>
    <circle cx="25" cy="245" r="3"/>
    <circle cx="47" cy="245" r="3"/>
    <circle cx="69" cy="245" r="3"/>
    <circle cx="91" cy="245" r="3"/>
    <circle cx="113" cy="245" r="3"/>
    <circle cx="135" cy="245" r="3"/>
    <circle cx="157" cy="245" r="3"/>
    <circle cx="179" cy="245" r="3"/>
    <circle cx="201" cy="245" r="3"/>
    <circle cx="3" cy="267" r="3"/>
    <circle cx="25" cy="267" r="3"/>
    <circle cx="47" cy="267" r="3"/>
    <circle cx="69" cy="267" r="3"/>
    <circle cx="91" cy="267" r="3"/>
    <circle cx="113" cy="267" r="3"/>
    <circle cx="135" cy="267" r="3"/>
    <circle cx="157" cy="267" r="3"/>
    <circle cx="179" cy="267" r="3"/>
    <circle cx="201" cy="267" r="3"/>
    <circle cx="3" cy="289" r="3"/>
    <circle cx="25" cy="289" r="3"/>
    <circle cx="47" cy="289" r="3"/>
    <circle cx="69" cy="289" r="3"/>
    <circle cx="91" cy="289" r="3"/>
    <circle cx="113" cy="289" r="3"/>
    <circle cx="135" cy="289" r="3"/>
    <circle cx="157" cy="289" r="3"/>
    <circle cx="179" cy="289" r="3"/>
    <circle cx="201" cy="289" r="3"/>
    <circle cx="3" cy="311" r="3"/>
    <circle cx="25" cy="311" r="3"/>
    <circle cx="47" cy="311" r="3"/>
    <circle cx="69" cy="311" r="3"/>
    <circle cx="91" cy="311" r="3"/>
    <circle cx="113" cy="311" r="3"/>
    <circle cx="135" cy="311" r="3"/>
    <circle cx="157" cy="311" r="3"/>
    <circle cx="179" cy="311" r="3"/>
    <circle cx="201" cy="311" r="3"/>
    <circle cx="3" cy="333" r="3"/>
    <circle cx="25" cy="333" r="3"/>
    <circle cx="47" cy="333" r="3"/>
    <circle cx="69" cy="333" r="3"/>
    <circle cx="91" cy="333" r="3"/>
    <circle cx="113" cy="333" r="3"/>
    <circle cx="135" cy="333" r="3"/>
    <circle cx="157" cy="333" r="3"/>
    <circle cx="179" cy="333" r="3"/>
    <circle cx="201" cy="333" r="3"/>
  </g>
</svg>
